<?xml version="1.0" encoding="UTF-8"?>
<svg version="1.1" xmlns="http://www.w3.org/2000/svg" width="500" height="500">
<path d="M0 0 C165 0 330 0 500 0 C500 165 500 330 500 500 C335 500 170 500 0 500 C0 335 0 170 0 0 Z " fill="#FE3434" transform="translate(0,0)"/>
<path d="M0 0 C0.97524628 -0.0112793 1.95049255 -0.02255859 2.95529175 -0.03417969 C4.01916107 -0.02608276 5.0830304 -0.01798584 6.17913818 -0.00964355 C7.30494293 -0.01665283 8.43074768 -0.02366211 9.59066772 -0.03088379 C13.32320653 -0.04852528 17.05498966 -0.03680898 20.78753662 -0.02331543 C23.38908025 -0.02601081 25.9906229 -0.02989362 28.59216309 -0.03491211 C34.05645909 -0.04219319 39.52053907 -0.03260199 44.98480225 -0.0135498 C51.26269337 0.00808946 57.54006216 0.00126496 63.81794 -0.02085543 C69.8877466 -0.04137228 75.95732593 -0.03897009 82.02715302 -0.02732849 C84.59289373 -0.02467844 87.15864792 -0.02786964 89.72437286 -0.0372467 C110.71140232 -0.09705291 130.98550503 0.62677975 147.14691162 15.88293457 C151.00651973 20.02581667 153.72219129 24.41504809 156.14691162 29.50793457 C156.51945068 30.17180176 156.89198975 30.83566895 157.27581787 31.51965332 C158.14691162 33.50793457 158.14691162 33.50793457 158.14691162 37.50793457 C158.80691162 37.50793457 159.46691162 37.50793457 160.14691162 37.50793457 C161.74049259 44.31951485 162.44105713 50.72583181 162.42156982 57.71179199 C162.42668076 58.67736526 162.43179169 59.64293854 162.4370575 60.63777161 C162.45084067 63.79638035 162.45000608 66.95476829 162.44769287 70.11340332 C162.45158435 72.32436706 162.45591995 74.53533007 162.4606781 76.74629211 C162.46811481 81.36502515 162.46786635 85.9836817 162.46258545 90.60241699 C162.45677656 96.5137304 162.47376859 102.42473194 162.49693012 108.33599377 C162.51167186 112.89567384 162.51253885 117.45527872 162.50942039 122.01497841 C162.5099328 124.19462009 162.51515533 126.37426606 162.52523232 128.55388451 C162.53759567 131.60021611 162.53080674 134.64593859 162.51922607 137.69226074 C162.52686981 138.58645721 162.53451355 139.48065369 162.54238892 140.40194702 C162.46785437 149.29156909 159.22417467 156.00882246 153.14691162 162.50793457 C148.2074621 166.58365522 143.40250626 169.17695699 137.14691162 170.50793457 C138.42566162 170.81730957 139.70441162 171.12668457 141.02191162 171.44543457 C149.80591258 174.39652638 156.10863701 181.29915061 160.30706787 189.36730957 C162.41014213 194.72770349 162.30629116 200.06968138 162.32391357 205.74182129 C162.33048477 206.66455338 162.33705597 207.58728546 162.34382629 208.53797913 C162.36351183 211.58786105 162.37521541 214.63769367 162.38519287 217.68762207 C162.3892684 218.734473 162.39334393 219.78132393 162.39754295 220.85989761 C162.41839003 226.40793916 162.43269398 231.95595611 162.44207764 237.50402832 C162.45309975 243.20064227 162.48745509 248.89686107 162.52724934 254.59333611 C162.55355853 259.0015021 162.56178242 263.4095763 162.56535912 267.81781387 C162.57019333 269.9155047 162.58171543 272.01319231 162.60039711 274.11080551 C162.75528476 292.66481055 161.10439353 310.47777761 147.90472412 324.88684082 C132.88744016 338.73611381 114.84501129 341.61573268 95.10687256 341.70080566 C94.04069702 341.70898315 92.97452148 341.71716064 91.8760376 341.72558594 C88.37779279 341.75023122 84.87958764 341.76689254 81.38128662 341.78137207 C80.18219917 341.78669575 78.98311172 341.79201942 77.74768829 341.79750443 C71.41364687 341.82413147 65.07962454 341.84354865 58.74554443 341.85803223 C53.50578555 341.87142229 48.2664114 341.89938322 43.02679443 341.94006348 C36.68809743 341.9892636 30.34975169 342.01413564 24.01087189 342.02125931 C21.59788416 342.02798238 19.18490461 342.04323162 16.77202606 342.06715012 C13.40405385 342.0986612 10.03745259 342.09886035 6.66937256 342.09143066 C5.6729071 342.107836 4.67644165 342.12424133 3.64978027 342.1411438 C2.73035645 342.13282532 1.81093262 342.12450684 0.86364746 342.11593628 C0.06876797 342.11924643 -0.72611153 342.12255657 -1.54507828 342.12596703 C-5.38776873 341.09698218 -6.59086409 339.81957837 -8.85308838 336.50793457 C-9.60707788 332.12071639 -9.52252772 327.77151015 -9.48127747 323.32957458 C-9.48632287 321.95866691 -9.49355166 320.58776583 -9.50277561 319.2168799 C-9.5217261 315.45035516 -9.50944898 311.68447858 -9.49205267 307.91797006 C-9.47869651 303.85587706 -9.49410937 299.79388001 -9.50587463 295.73179626 C-9.52426825 287.77473671 -9.51572771 279.81792248 -9.49778641 271.86087053 C-9.48377031 265.39552144 -9.47986547 258.93023901 -9.48322868 252.46487617 C-9.48370613 251.54528858 -9.48418357 250.62570099 -9.48467548 249.67824711 C-9.48570179 247.81023369 -9.48675715 245.94222029 -9.48784124 244.0742069 C-9.49641166 227.55100903 -9.47972169 211.02792975 -9.45001221 194.50476074 C-9.42116929 178.46336894 -9.41409303 162.42214793 -9.42950439 146.3807373 C-9.44625591 128.92042453 -9.45031186 111.46019287 -9.43279403 93.99987799 C-9.43094961 92.13897774 -9.42911488 90.27807747 -9.42728996 88.4171772 C-9.42637787 87.50153038 -9.42546578 86.58588356 -9.42452605 85.64248986 C-9.41891448 79.18267098 -9.42223357 72.72289162 -9.42883492 66.26307487 C-9.43655703 58.39398363 -9.42985598 50.52506068 -9.40465987 42.65600341 C-9.39213918 38.63928551 -9.38604923 34.62282996 -9.39720154 30.60610199 C-9.40721132 26.93157303 -9.39885494 23.25756829 -9.37562036 19.58310337 C-9.36798369 17.61888329 -9.38004606 15.65461743 -9.3927241 13.69042343 C-9.38167641 12.5290554 -9.37062872 11.36768737 -9.35924625 10.17112637 C-9.35805477 9.16681841 -9.35686329 8.16251046 -9.3556357 7.12776893 C-8.34987795 1.88464338 -5.06248918 0.00902769 0 0 Z " fill="#D9D8D8" transform="translate(285.85308837890625,83.4920654296875)"/>
<path d="M0 0 C1.53446682 -0.00458068 3.0689316 -0.0098917 4.60339355 -0.0158844 C7.79346134 -0.02473454 10.98327769 -0.02248526 14.17333984 -0.01245117 C18.21745901 -0.00095613 22.26070557 -0.02122241 26.30471039 -0.05036831 C29.46560982 -0.06890067 32.62630646 -0.06840466 35.7872467 -0.06273079 C37.27646613 -0.06257973 38.76570127 -0.06844101 40.25486755 -0.08102226 C57.06922997 -0.2031598 75.19207035 3.30266508 87.96875 15.12109375 C100.76784621 29.37276405 103.67018876 46.23827748 103.734375 64.6640625 C103.74007507 65.93204178 103.74577515 67.20002106 103.75164795 68.50642395 C103.76106863 71.17839136 103.76798185 73.85024723 103.77148438 76.5222168 C103.77699468 79.94197367 103.80110052 83.36133755 103.82945633 86.78097057 C103.85255503 90.05447131 103.85452803 93.32799166 103.859375 96.6015625 C103.8717218 97.82763718 103.8840686 99.05371185 103.89678955 100.31694031 C103.89378845 101.45524796 103.89078735 102.5935556 103.88769531 103.76635742 C103.89316376 105.26690926 103.89316376 105.26690926 103.89874268 106.79777527 C103.46312755 109.92219778 102.8295911 111.27603107 100.53125 113.43359375 C98.26124573 113.94152832 98.26124573 113.94152832 95.57250977 113.95117188 C94.56458878 113.96378052 93.55666779 113.97638916 92.51820374 113.98937988 C90.88690773 113.9772345 90.88690773 113.9772345 89.22265625 113.96484375 C87.54525612 113.97058411 87.54525612 113.97058411 85.83396912 113.97644043 C83.46767274 113.97916393 81.10134648 113.9717723 78.73510742 113.95507812 C75.11113323 113.93369631 71.48914627 113.95485632 67.86523438 113.98046875 C65.56770395 113.97782516 63.27017476 113.97269954 60.97265625 113.96484375 C59.88714981 113.97294067 58.80164337 113.9810376 57.6832428 113.98937988 C56.67216965 113.97677124 55.6610965 113.9641626 54.61938477 113.95117188 C53.7313063 113.9479895 52.84322784 113.94480713 51.92823792 113.94152832 C48.71247139 113.26009018 47.51708143 112.01232347 45.53125 109.43359375 C45.03918457 107.44989014 45.03918457 107.44989014 45.04882812 105.34277344 C45.04202026 104.54804626 45.0352124 103.75331909 45.02819824 102.93450928 C45.03951782 102.0834259 45.0508374 101.23234253 45.0625 100.35546875 C45.05545044 99.47006409 45.04840088 98.58465942 45.0411377 97.67242432 C45.01169959 93.89295378 45.0282204 90.11400016 45.04052734 86.33447266 C45.04292137 83.57032988 45.02191248 80.80700913 45 78.04296875 C45.01131958 77.1999823 45.02263916 76.35699585 45.03430176 75.48846436 C44.98593019 69.75214045 44.05986981 65.0856778 40.53125 60.43359375 C36.22191497 57.39916774 32.60498581 57.04953214 27.41015625 57.03515625 C26.74717026 57.03228607 26.08418427 57.02941589 25.40110779 57.02645874 C24.00689839 57.02442868 22.61265983 57.02988415 21.21850586 57.04248047 C19.10269407 57.05852592 16.9887994 57.04261128 14.87304688 57.0234375 C13.51041251 57.02542062 12.14777933 57.02926573 10.78515625 57.03515625 C9.56127197 57.03854004 8.3373877 57.04192383 7.07641602 57.04541016 C1.81745876 57.62124805 -2.11768687 59.01142204 -5.84375 62.93359375 C-8.4355958 66.92104883 -8.60997408 69.98831645 -8.67407227 74.64916992 C-8.69401749 75.93027145 -8.71396271 77.21137299 -8.73451233 78.53129578 C-8.7514954 79.92971679 -8.76837425 81.32813906 -8.78515625 82.7265625 C-8.80573166 84.15717665 -8.82672829 85.5877848 -8.84812927 87.01838684 C-8.90328933 90.78139381 -8.95272529 94.5444551 -9.00097656 98.30755615 C-9.05123593 102.14844591 -9.10689883 105.98925691 -9.16210938 109.83007812 C-9.26961673 117.36451662 -9.37107811 124.89902066 -9.46875 132.43359375 C-8.4565741 132.70099617 -8.4565741 132.70099617 -7.4239502 132.97380066 C-0.94360572 134.70986838 5.44269689 136.63142844 11.8125 138.734375 C12.76891891 139.04753159 13.72533783 139.36068817 14.71073914 139.68333435 C17.8184828 140.70151423 20.92494098 141.72354608 24.03125 142.74609375 C28.41245418 144.18582928 32.79405761 145.62434628 37.17578125 147.0625 C38.28351395 147.4263681 39.39124664 147.79023621 40.532547 148.16513062 C48.04657644 150.62976261 55.57227798 153.05558564 63.10546875 155.4609375 C66.03955891 156.40159838 68.97342695 157.34294876 71.90722656 158.28451538 C73.76963108 158.88008133 75.63306749 159.47243076 77.49755859 160.06143188 C80.08837007 160.88024982 82.6752973 161.71040616 85.26171875 162.54296875 C86.39283333 162.89517738 86.39283333 162.89517738 87.54679871 163.25450134 C94.15461333 165.4030134 99.23322593 167.9198127 102.70337391 174.27643776 C104.34073759 178.54283574 104.07578808 182.95756352 104.03295898 187.47094727 C104.04106346 189.10660896 104.04106346 189.10660896 104.04933167 190.77531433 C104.06181177 194.37132127 104.045324 197.96652605 104.02734375 201.5625 C104.02749883 204.07486513 104.02898933 206.5872305 104.03175354 209.09959412 C104.03313749 214.3660449 104.02102396 219.63228999 103.99780273 224.89868164 C103.9742163 230.28451496 103.96704998 235.67003232 103.97729492 241.0559082 C103.98969031 247.58038727 103.98719985 254.10466113 103.97163582 260.62913322 C103.96714759 263.10441629 103.96676129 265.57971058 103.97070122 268.05499458 C103.98876402 289.40224996 102.93607589 308.39655393 88.15625 325.12109375 C68.18008328 342.71914538 45.12254453 341.92447894 19.77575684 341.75616455 C17.025981 341.74270206 14.2763696 341.74791607 11.52657604 341.75329304 C8.1882422 341.75747616 4.85003764 341.74543958 1.51171875 341.734375 C-0.30438652 341.73574211 -0.30438652 341.73574211 -2.15718079 341.73713684 C-20.7481018 341.58465783 -38.27214271 338.14710579 -52.28125 325.12109375 C-65.1630169 311.25316288 -67.78422971 292.57184274 -67.76953125 274.37109375 C-67.77595894 272.57961914 -67.77595894 272.57961914 -67.78251648 270.75195312 C-67.78821707 268.25114574 -67.78879191 265.75032179 -67.78442383 263.24951172 C-67.78123542 259.41605928 -67.80487476 255.58335892 -67.83007812 251.75 C-67.83234865 249.31119889 -67.83305577 246.87239571 -67.83203125 244.43359375 C-67.841241 243.28882568 -67.85045074 242.14405762 -67.85993958 240.96459961 C-67.85371078 239.90249268 -67.84748199 238.84038574 -67.84106445 237.74609375 C-67.84169388 236.81410156 -67.8423233 235.88210938 -67.8429718 234.921875 C-67.38622417 231.88486173 -66.70273096 230.54126802 -64.46875 228.43359375 C-62.10935974 227.93911743 -62.10935974 227.93911743 -59.29467773 227.94775391 C-57.71305092 227.93852402 -57.71305092 227.93852402 -56.09947205 227.92910767 C-54.96191971 227.9434787 -53.82436737 227.95784973 -52.65234375 227.97265625 C-51.48494156 227.97357269 -50.31753937 227.97448914 -49.11476135 227.97543335 C-46.64588355 227.98147843 -44.17701339 227.99725133 -41.70825195 228.02197266 C-37.91785839 228.05848194 -34.12844163 228.06299212 -30.33789062 228.0625 C-27.94269984 228.07233051 -25.54751571 228.08398722 -23.15234375 228.09765625 C-21.4429789 228.10099472 -21.4429789 228.10099472 -19.69908142 228.10440063 C-18.6478157 228.11716034 -17.59654999 228.12992004 -16.51342773 228.14306641 C-15.12135353 228.1545018 -15.12135353 228.1545018 -13.70115662 228.16616821 C-11.46875 228.43359375 -11.46875 228.43359375 -9.46875 230.43359375 C-9.25894428 233.51779442 -9.16758069 236.51934692 -9.16015625 239.60546875 C-9.13498649 241.48568005 -9.10958861 243.36588831 -9.08398438 245.24609375 C-9.05528776 248.21288194 -9.03127523 251.17961699 -9.01245117 254.14648438 C-8.99073611 257.00809991 -8.95128011 259.8690758 -8.91015625 262.73046875 C-8.91004044 263.61192566 -8.90992462 264.49338257 -8.9098053 265.40155029 C-8.82845176 270.48791255 -8.28881591 274.02827366 -5.46875 278.43359375 C1.01471682 284.58457509 7.71998775 283.64952992 16.26586914 283.67382812 C18.32674842 283.68351385 20.38662087 283.71455453 22.44726562 283.74609375 C32.02280387 284.04985891 32.02280387 284.04985891 40.53125 280.43359375 C45.29230632 273.24278322 45.13273288 266.53596241 45.140625 258.08984375 C45.15562863 256.71120279 45.17236032 255.33257965 45.19073486 253.95397949 C45.23417686 250.35045484 45.25435537 246.74717254 45.26947021 243.14343262 C45.28912565 239.45615443 45.3310857 235.76913482 45.37109375 232.08203125 C45.44614439 224.86595533 45.4965871 217.6499888 45.53125 210.43359375 C44.11948486 210.29195801 44.11948486 210.29195801 42.67919922 210.14746094 C37.63300069 209.42050506 32.95926924 207.69321301 28.1640625 206.01171875 C27.17107147 205.66985535 26.17808044 205.32799194 25.15499878 204.97576904 C21.98666818 203.88429415 18.82126687 202.78463715 15.65625 201.68359375 C3.34958215 197.41330987 -8.92812551 193.19009185 -21.45214844 189.60058594 C-27.85514513 187.75944486 -34.19187851 185.7110949 -40.52075195 183.63134766 C-41.96222334 183.16036043 -43.40565145 182.69532594 -44.85083008 182.23583984 C-46.99233479 181.55454964 -49.1273075 180.85549793 -51.26171875 180.15234375 C-52.5046167 179.74951172 -53.74751465 179.34667969 -55.02807617 178.93164062 C-60.7594056 176.43625729 -64.5048886 173.45234812 -66.87126827 167.57279396 C-68.07701188 163.25579672 -67.88346419 158.8473079 -67.85693359 154.39624023 C-67.86219055 153.3057991 -67.86744751 152.21535797 -67.87286377 151.09187317 C-67.88603848 147.49599771 -67.87732994 143.9005673 -67.8671875 140.3046875 C-67.86920997 137.79232194 -67.87212286 135.27995695 -67.87588501 132.76759338 C-67.88030582 127.50118515 -67.87417747 122.23489147 -67.85986328 116.96850586 C-67.8453917 111.58268092 -67.8453004 106.19710403 -67.85986328 100.8112793 C-67.87734779 94.28681586 -67.8799334 87.76253326 -67.8701973 81.23805428 C-67.86820841 78.76276671 -67.870608 76.2874713 -67.87763596 73.81219292 C-67.92706286 51.49703717 -66.64196669 31.63929642 -50.69921875 14.53515625 C-37.09414619 1.41700208 -17.89230014 -0.04780383 0 0 Z " fill="#D9D8D8" transform="translate(131.46875,83.56640625)"/>
<path d="M0 0 C43 0 43 0 51 4 C54.8974705 8.89682191 56.12056946 12.57011897 56.16113281 18.73730469 C56.17074036 19.91572937 56.1803479 21.09415405 56.19024658 22.30828857 C56.19449646 23.58327209 56.19874634 24.85825562 56.203125 26.171875 C56.20882507 27.48279114 56.21452515 28.79370728 56.22039795 30.14434814 C56.23089958 32.92175687 56.23674721 35.69913672 56.24023438 38.4765625 C56.24570681 42.02168781 56.269711 45.56642666 56.29820633 49.11143112 C56.32140715 52.50657118 56.3232877 55.90165983 56.328125 59.296875 C56.3404718 60.5637616 56.3528186 61.83064819 56.36553955 63.13592529 C56.34765242 70.23471502 56.32918956 76.13328505 51.5 81.7421875 C47.44634227 84.8035436 44.66419224 86.12797763 39.62036133 86.11352539 C38.28092468 86.11334412 38.28092468 86.11334412 36.91442871 86.11315918 C35.97973755 86.10804321 35.04504639 86.10292725 34.08203125 86.09765625 C33.22009155 86.09664917 32.35815186 86.09564209 31.47009277 86.09460449 C28.25088165 86.08937322 25.03168948 86.07541195 21.8125 86.0625 C14.614375 86.041875 7.41625 86.02125 0 86 C0 57.62 0 29.24 0 0 Z " fill="#FE3434" transform="translate(336,282)"/>
<path d="M0 0 C7.30125 -0.0825 14.6025 -0.165 22.125 -0.25 C25.56703857 -0.30462402 25.56703857 -0.30462402 29.07861328 -0.36035156 C30.90917018 -0.37204034 32.73973752 -0.38223172 34.5703125 -0.390625 C35.51124756 -0.41108887 36.45218262 -0.43155273 37.42163086 -0.45263672 C43.13643841 -0.45566283 46.51093204 0.09745668 51 4 C54.77545868 8.99993176 56.11802135 12.51972275 56.17700195 18.72143555 C56.19625481 20.48423103 56.19625481 20.48423103 56.21589661 22.28263855 C56.22328354 23.55448502 56.23067047 24.82633148 56.23828125 26.13671875 C56.246353 27.44526321 56.25442474 28.75380768 56.26274109 30.102005 C56.27775793 32.8752123 56.28759956 35.64839409 56.29516602 38.42163086 C56.30620169 41.95780636 56.34057184 45.4933476 56.38033772 49.02929974 C56.4129266 52.41924615 56.41729364 55.80912787 56.42578125 59.19921875 C56.44328934 60.46094406 56.46079742 61.72266937 56.47883606 63.02262878 C56.46130633 70.15873733 55.95899607 74.983594 52 81 C37.04318002 92.90440774 21.11366266 86 0 86 C0 57.62 0 29.24 0 0 Z " fill="#FE3434" transform="translate(336,140)"/>
<path d="M0 0 C43 0 43 0 51 4 C55 8.9 55 8.9 55 13 C53.19813232 13.029729 53.19813232 13.029729 51.35986328 13.06005859 C46.91303146 13.1359962 42.46653195 13.22473132 38.02001953 13.31738281 C36.09365386 13.35572168 34.1672154 13.39056582 32.24072266 13.421875 C29.47532082 13.46741945 26.71042231 13.52543037 23.9453125 13.5859375 C22.6483696 13.60326431 22.6483696 13.60326431 21.32522583 13.62094116 C16.68217152 13.52662158 16.68217152 13.52662158 13 16 C12.66688124 19.03576169 12.66688124 19.03576169 12.68115234 22.65283203 C12.67110672 23.33587402 12.6610611 24.01891602 12.65071106 24.72265625 C12.6197763 26.98436629 12.60281577 29.24595744 12.5859375 31.5078125 C12.56723408 33.07438182 12.5476613 34.64094099 12.5272522 36.20748901 C12.47583748 40.33382183 12.43626197 44.46018734 12.39910889 48.58666992 C12.35912759 52.7961441 12.30800854 57.00548118 12.2578125 61.21484375 C12.16094272 69.47646899 12.07657355 77.73816185 12 86 C8.04 86 4.08 86 0 86 C0 57.62 0 29.24 0 0 Z " fill="#F07272" transform="translate(336,282)"/>
<path d="M0 0 C7.30125 -0.0825 14.6025 -0.165 22.125 -0.25 C25.56703857 -0.30462402 25.56703857 -0.30462402 29.07861328 -0.36035156 C30.90917018 -0.37204034 32.73973752 -0.38223172 34.5703125 -0.390625 C35.51124756 -0.41108887 36.45218262 -0.43155273 37.42163086 -0.45263672 C43.1420348 -0.45566579 46.49936136 0.10665316 51 4 C53.4375 7 53.4375 7 55 10 C54.75 12.375 54.75 12.375 54 14 C52.47947021 13.75987183 52.47947021 13.75987183 50.92822266 13.51489258 C44.74972477 12.70504472 38.59897472 12.73371763 32.375 12.6875 C31.0653125 12.65849609 29.755625 12.62949219 28.40625 12.59960938 C27.14554687 12.59123047 25.88484375 12.58285156 24.5859375 12.57421875 C22.86963135 12.55234497 22.86963135 12.55234497 21.11865234 12.5300293 C17.20931825 13.11915315 15.75672874 14.18618863 13 17 C12.23954919 20.174853 12.23954919 20.174853 12.34057617 23.78808594 C12.33009247 24.46166641 12.31960876 25.13524689 12.30880737 25.82923889 C12.28008385 28.04808775 12.28634465 30.26537375 12.29296875 32.484375 C12.27985186 34.02567498 12.26454766 35.56695777 12.24714661 37.10821533 C12.2072816 41.15904805 12.19710529 45.20943127 12.19311523 49.26043701 C12.18378648 53.39641977 12.14637467 57.5321381 12.11132812 61.66796875 C12.04673717 69.77865067 12.01350962 77.88907292 12 86 C8.04 86 4.08 86 0 86 C0 57.62 0 29.24 0 0 Z " fill="#F07171" transform="translate(336,140)"/>
<path d="M0 0 C1.5625 1.25 1.5625 1.25 3 3 C2.6875 5.1875 2.6875 5.1875 2 7 C2.66 7 3.32 7 4 7 C4.06972483 20.46574698 4.12292514 33.93145051 4.15543652 47.39734173 C4.17104581 53.65110877 4.19219723 59.90475166 4.22631836 66.15844727 C4.25908108 72.20147218 4.27688858 78.24437819 4.28463173 84.28748512 C4.29014498 86.58498822 4.30091048 88.88248533 4.31719017 91.17993736 C4.39677519 102.88416512 4.45577165 113.72577383 1 125 C0.51438948 126.9567454 0.03442967 128.91491007 -0.4375 130.875 C-1.7099105 135.45834254 -3.43924736 138.99882399 -6 143 C-6.43828125 143.79664063 -6.8765625 144.59328125 -7.328125 145.4140625 C-11.94974858 152.5624616 -21.50076994 161.17435311 -30 163 C-31.35351562 163.33837891 -31.35351562 163.33837891 -32.734375 163.68359375 C-34.8158712 164.2039678 -36.89793978 164.72205581 -38.98046875 165.23828125 C-40.71680462 165.67629612 -42.45060143 166.12539178 -44.17578125 166.60546875 C-53.13179346 169.07161704 -62.44568414 169.15338368 -71.6796875 169.1328125 C-73.14162033 169.13424759 -73.14162033 169.13424759 -74.63308716 169.13571167 C-76.67840642 169.1363869 -78.72372792 169.13457889 -80.76904297 169.13037109 C-83.86040174 169.12502524 -86.95161448 169.13033267 -90.04296875 169.13671875 C-117.20389469 169.14929705 -117.20389469 169.14929705 -126 166 C-127.051875 165.67 -128.10375 165.34 -129.1875 165 C-132 164 -132 164 -135 162 C-135 161.34 -135 160.68 -135 160 C-134.16799072 160.21221191 -133.33598145 160.42442383 -132.47875977 160.64306641 C-117.96911433 163.78441522 -103.31020301 163.45782968 -88.54370117 163.39111328 C-84.70611418 163.37400892 -80.86915653 163.38390449 -77.03159237 163.40183067 C-74.02250134 163.41280152 -71.01355341 163.40916248 -68.00445747 163.4014473 C-66.59143558 163.39948255 -65.17839955 163.40176902 -63.76539421 163.40888596 C-50.0572975 163.4628335 -35.97133487 163.0105943 -25 154 C-24.31679687 153.52433594 -23.63359375 153.04867187 -22.9296875 152.55859375 C-13.02178078 145.64566264 -5.84662074 136.08921119 -3.3984375 124.0390625 C-3.26695312 123.03617187 -3.13546875 122.03328125 -3 121 C-2.82846909 119.99678207 -2.65693817 118.99356415 -2.48020935 117.95994568 C-1.89626337 113.14455761 -1.88397789 108.44659598 -1.91821289 103.60180664 C-1.92127945 102.57975632 -1.92434601 101.55770599 -1.92750549 100.50468445 C-1.93463667 98.29432954 -1.94401406 96.08398096 -1.95540047 93.87364388 C-1.97284751 90.37176721 -1.98310797 86.86993653 -1.99131775 83.36802673 C-2.01572204 73.41433363 -2.05133097 63.46070265 -2.09594727 53.50708008 C-2.12277229 47.41063787 -2.13978708 41.31423126 -2.15081596 35.21774101 C-2.15701161 32.89936442 -2.16699915 30.58099467 -2.18089485 28.26265144 C-2.20017429 25.01758458 -2.20701594 21.77270444 -2.21118164 18.52758789 C-2.21994324 17.57616913 -2.22870483 16.62475037 -2.23773193 15.64450073 C-2.22960927 10.08405066 -1.57625104 5.33833143 0 0 Z " fill="#F55C5C" transform="translate(244,269)"/>
<path d="M0 0 C0.66 0 1.32 0 2 0 C2 0.99 2 1.98 2 3 C2.66 3 3.32 3 4 3 C5.0326802 5.78823655 5.04509293 6.8677274 4.0625 9.75 C3.711875 10.4925 3.36125 11.235 3 12 C3.66 12 4.32 12 5 12 C5.04636574 23.23974927 5.0818908 34.47947575 5.10362434 45.71930122 C5.11405599 50.93855292 5.12820399 56.15773912 5.15087891 61.37695312 C5.17262921 66.41494261 5.18457329 71.45286913 5.18975449 76.49090195 C5.1934463 78.41180283 5.20065548 80.33270032 5.21146011 82.25357437 C5.22600402 84.9466315 5.22797672 87.63942937 5.22705078 90.33251953 C5.23424133 91.12446213 5.24143188 91.91640472 5.24884033 92.73234558 C5.23214757 97.22700821 4.65904542 100.75660267 3 105 C2.46960521 107.30942732 2.01246864 109.62304159 1.5625 111.94921875 C1 114 1 114 -1 117 C-1.45246094 118.41539062 -1.45246094 118.41539062 -1.9140625 119.859375 C-5.46082477 130.11691767 -14.25007507 138.00957833 -23 144 C-25.96402393 145.41374693 -28.79329875 146.33409228 -32 147 C-32.62132812 147.185625 -33.24265625 147.37125 -33.8828125 147.5625 C-37.53510442 148.31721715 -41.21884952 147.95847668 -44.9296875 147.83984375 C-47.97719061 147.83719561 -47.97719061 147.83719561 -50.54315186 148.99383545 C-55.20637841 150.3511335 -59.54783903 150.2790302 -64.37988281 150.25878906 C-65.92719589 150.26404602 -65.92719589 150.26404602 -67.50576782 150.26940918 C-70.90495592 150.27819041 -74.3039349 150.27239173 -77.703125 150.265625 C-80.06630493 150.26697227 -82.42948459 150.26891332 -84.79266357 150.27142334 C-89.73875576 150.27436936 -94.68477561 150.27009212 -99.63085938 150.26074219 C-105.98215077 150.24932304 -112.33327359 150.25592605 -118.68455887 150.26788712 C-123.56058025 150.27509847 -128.43656135 150.27282156 -133.31258392 150.26763153 C-135.65544403 150.26629432 -137.99830775 150.26794523 -140.34116364 150.27259064 C-143.60677355 150.27764665 -146.87210616 150.26995973 -150.13769531 150.25878906 C-151.59953751 150.26486176 -151.59953751 150.26486176 -153.09091187 150.27105713 C-153.97689056 150.26541748 -154.86286926 150.25977783 -155.7756958 150.25396729 C-156.54773975 150.25321323 -157.31978371 150.25245918 -158.11522293 150.25168228 C-160 150 -160 150 -162 148 C-160 146 -160 146 -158.0650692 145.76228428 C-157.26914171 145.76802432 -156.47321423 145.77376436 -155.65316772 145.77967834 C-154.73956985 145.7812645 -153.82597198 145.78285065 -152.88468933 145.78448486 C-151.87908463 145.79638855 -150.87347992 145.80829224 -149.83740234 145.82055664 C-148.25154579 145.82734688 -148.25154579 145.82734688 -146.63365173 145.83427429 C-144.32935529 145.84525959 -142.02507716 145.86078318 -139.72083664 145.88023567 C-136.06172423 145.91035556 -132.40277126 145.92719809 -128.74356079 145.94029236 C-118.33607966 145.98005263 -107.92878857 146.04459555 -97.52148438 146.11645508 C-91.15845905 146.15946376 -84.79550042 146.18738633 -78.4323616 146.20675468 C-76.01730723 146.21725043 -73.60227024 146.23356518 -71.18729782 146.25605965 C-46.09662109 147.15035017 -46.09662109 147.15035017 -24 137 C-23.30519531 136.51273438 -22.61039063 136.02546875 -21.89453125 135.5234375 C-11.27593169 128.07248771 -4.46541912 117.78087173 -1.54296875 105.15234375 C-0.29474212 97.90544528 0.14507088 90.78741768 0.11352539 83.44116211 C0.11374443 82.07856766 0.11374443 82.07856766 0.1139679 80.68844604 C0.11327722 77.7180534 0.1055248 74.74772529 0.09765625 71.77734375 C0.09578906 69.70512425 0.09436658 67.63290431 0.09336853 65.5606842 C0.08956703 60.13069419 0.07975715 54.70073131 0.06866455 49.27075195 C0.05839934 43.72021858 0.05386 38.16968078 0.04882812 32.61914062 C0.03813259 21.74608189 0.02108485 10.87304321 0 0 Z " fill="#F55959" transform="translate(456,286)"/>
<path d="M0 0 C1.42848623 -0.01151351 2.85692965 -0.0319559 4.28515625 -0.06152344 C19.45178838 -0.37512251 19.45178838 -0.37512251 24.83813477 4.29516602 C26.00341797 6.93847656 26.00341797 6.93847656 26.83813477 9.29516602 C25.68196655 9.27945557 25.68196655 9.27945557 24.50244141 9.26342773 C20.96853979 9.22153739 17.43469066 9.19573541 13.90063477 9.17016602 C12.68827148 9.1534082 11.4759082 9.13665039 10.22680664 9.11938477 C-1.0758565 8.98037107 -1.0758565 8.98037107 -11.59936523 12.67016602 C-17.78123932 19.09931507 -16.2967068 29.54152457 -16.25952148 37.79125977 C-16.25739906 39.57428246 -16.25739906 39.57428246 -16.25523376 41.39332581 C-16.24965638 45.17313196 -16.23710798 48.9528779 -16.22436523 52.73266602 C-16.21934731 55.30232662 -16.21478492 57.87198815 -16.21069336 60.44165039 C-16.19969434 66.72617864 -16.18244525 73.01066213 -16.16186523 79.29516602 C-19.46186523 78.30516602 -22.76186523 77.31516602 -26.16186523 76.29516602 C-26.23149291 68.05425926 -26.28474099 59.8134762 -26.31730175 51.57234764 C-26.33293232 47.74531002 -26.35412242 43.91847422 -26.38818359 40.09155273 C-26.42087085 36.39570772 -26.43873787 32.70005637 -26.44649696 29.00407791 C-26.45202374 27.59671609 -26.46281624 26.1893644 -26.4790554 24.78208542 C-26.50095159 22.80526896 -26.50209168 20.82825605 -26.50244141 18.85131836 C-26.50910324 17.7276889 -26.51576508 16.60405945 -26.52262878 15.44638062 C-26.03593542 11.19518833 -24.5503631 7.85398628 -21.69702148 4.65063477 C-14.9639786 -0.68936476 -8.26024373 0.0463368 0 0 Z " fill="#F07373" transform="translate(148.161865234375,139.704833984375)"/>
<path d="M0 0 C9.39994607 2.40627909 18.55250108 5.46575543 27.73071289 8.59057617 C34.32533262 10.83145002 40.91220049 13.01230061 47.62890625 14.8671875 C57.26153519 17.5641606 66.67529593 20.91689682 76.125 24.1875 C78.91383819 25.15029023 81.70303457 26.11201321 84.4928894 27.07185364 C86.21417712 27.66429061 87.93485106 28.2585148 89.65481567 28.8547821 C90.4301767 29.12208633 91.20553772 29.38939056 92.00439453 29.66479492 C92.68164581 29.89921799 93.35889709 30.13364105 94.05667114 30.37516785 C96.01190147 31.00382664 98.00751116 31.50187779 100 32 C100 52.46 100 72.92 100 94 C99.67 94 99.34 94 99 94 C99 75.52 99 57.04 99 38 C92.65694046 36.27007467 86.76841604 34.74072852 80.390625 33.52734375 C77.29326287 32.8441021 74.37137565 31.82516181 71.3828125 30.7734375 C68.77783524 29.9278875 66.16795782 29.30541939 63.5 28.6875 C58.35840565 27.44800851 53.4622697 25.80461153 48.5 24 C43.7211573 22.26324102 39.0227557 20.65578774 34.0625 19.5 C28.74427313 18.25388826 23.56849996 16.68222125 18.375 15 C17.579729 14.75056641 16.78445801 14.50113281 15.96508789 14.24414062 C15.22121826 13.99857422 14.47734863 13.75300781 13.7109375 13.5 C13.04368652 13.2834375 12.37643555 13.066875 11.68896484 12.84375 C10 12 10 12 8 9 C6.2365625 8.3503125 6.2365625 8.3503125 4.4375 7.6875 C3.303125 7.130625 2.16875 6.57375 1 6 C0.0625 2.8125 0.0625 2.8125 0 0 Z " fill="#F16A6A" transform="translate(77,262)"/>
<path d="M0 0 C3.2179411 4.82691165 5.55059748 10.17665469 4.6875 16.0625 C4.460625 17.031875 4.23375 18.00125 4 19 C4.66 19.33 5.32 19.66 6 20 C5.34 22.64 4.68 25.28 4 28 C4.66 28 5.32 28 6 28 C6.02320502 38.04903708 6.04095665 48.09806775 6.05181217 58.1471262 C6.05702316 62.81366996 6.06408834 67.48019533 6.07543945 72.14672852 C6.08633182 76.65304176 6.09229028 81.15933737 6.09487724 85.66566277 C6.09672006 87.38198054 6.10031859 89.09829739 6.10573006 90.81460762 C6.11302479 93.22481472 6.1139874 95.63494959 6.11352539 98.04516602 C6.11712067 98.74935669 6.12071594 99.45354736 6.12442017 100.17907715 C6.1114494 106.46248709 5.64126824 112.25135737 3 118 C2.72542969 118.61359375 2.45085937 119.2271875 2.16796875 119.859375 C-1.26022883 126.14249298 -6.35933676 131.3121125 -13 134 C-13.99 134.99 -13.99 134.99 -15 136 C-15.99 134.68 -16.98 133.36 -18 132 C-17.34 131.484375 -16.68 130.96875 -16 130.4375 C-12.82346429 127.85656474 -9.79578443 125.14492043 -6.76953125 122.390625 C-5 121 -5 121 -3 121 C-0.26556187 113.18731962 1.30112091 106.31742864 1.25878906 98.08056641 C1.2622937 97.22739334 1.26579834 96.37422028 1.26940918 95.49519348 C1.27815384 92.69723173 1.27240208 89.89952647 1.265625 87.1015625 C1.26697399 85.14155021 1.26891646 83.18153825 1.27142334 81.2215271 C1.27436499 77.12128502 1.27010879 73.02113033 1.26074219 68.92089844 C1.2493634 63.68695913 1.25590331 58.45322533 1.26788712 53.21929359 C1.27514455 49.17333452 1.27279975 45.12742345 1.26763153 41.08146286 C1.26630497 39.15271352 1.26790759 37.22395971 1.27259064 35.29521561 C1.44252241 22.45431935 1.44252241 22.45431935 -0.55352783 9.82040405 C-1.39946903 6.37124215 -1.59370345 3.18740691 0 0 Z " fill="#F55C5C" transform="translate(455,129)"/>
<path d="M0 0 C0.78532608 -0.0033284 1.57065216 -0.0066568 2.379776 -0.01008606 C4.03988052 -0.01514588 5.6999952 -0.01749468 7.36010742 -0.01733398 C9.89714338 -0.01952004 12.43374412 -0.03768421 14.97070312 -0.05664062 C16.58463393 -0.05957484 18.1985668 -0.06155945 19.8125 -0.0625 C20.56989975 -0.06968552 21.3272995 -0.07687103 22.10765076 -0.08427429 C25.88276068 -0.06793321 28.77109187 0.05020447 31.97265625 2.16796875 C31.64265625 3.48796875 31.31265625 4.80796875 30.97265625 6.16796875 C29.45212646 5.92784058 29.45212646 5.92784058 27.90087891 5.68286133 C21.72238102 4.87301347 15.57163097 4.90168638 9.34765625 4.85546875 C8.03796875 4.82646484 6.72828125 4.79746094 5.37890625 4.76757812 C4.11820312 4.75919922 2.8575 4.75082031 1.55859375 4.7421875 C0.41438965 4.72760498 -0.72981445 4.71302246 -1.90869141 4.69799805 C-5.8180255 5.2871219 -7.27061501 6.35415738 -10.02734375 9.16796875 C-10.78779456 12.34282175 -10.78779456 12.34282175 -10.68676758 15.95605469 C-10.69725128 16.62963516 -10.70773499 17.30321564 -10.71853638 17.99720764 C-10.7472599 20.2160565 -10.7409991 22.4333425 -10.734375 24.65234375 C-10.74749189 26.19364373 -10.76279609 27.73492652 -10.78019714 29.27618408 C-10.82006215 33.3270168 -10.83023846 37.37740002 -10.83422852 41.42840576 C-10.84355727 45.56438852 -10.88096908 49.70010685 -10.91601562 53.8359375 C-10.98060658 61.94661942 -11.01383413 70.05704167 -11.02734375 78.16796875 C-12.67734375 78.16796875 -14.32734375 78.16796875 -16.02734375 78.16796875 C-16.1433396 69.01444972 -16.23211017 59.86118479 -16.28640461 50.70709038 C-16.31246718 46.45615501 -16.34780304 42.20572352 -16.40454102 37.95507812 C-16.45898171 33.85072015 -16.48878941 29.74684594 -16.50172997 25.64215469 C-16.51094838 24.07844555 -16.52895038 22.51476206 -16.55599403 20.95125961 C-16.59244797 18.7558303 -16.59728277 16.56238387 -16.5949707 14.36669922 C-16.60607376 13.11871552 -16.61717682 11.87073181 -16.62861633 10.58493042 C-15.82421023 6.01358474 -14.31402266 4.40576436 -11.02734375 1.16796875 C-7.31749449 -0.06864767 -3.86436083 0.00566265 0 0 Z " fill="#F45F5F" transform="translate(359.02734375,147.83203125)"/>
<path d="M0 0 C0.86140091 0.0028299 1.72280182 0.00565979 2.61030579 0.00857544 C5.36143894 0.01977013 8.1122465 0.04487329 10.86328125 0.0703125 C12.72851092 0.08034323 14.5937457 0.08946891 16.45898438 0.09765625 C21.03137545 0.11970712 25.60352314 0.15423201 30.17578125 0.1953125 C30.17578125 0.8553125 30.17578125 1.5153125 30.17578125 2.1953125 C31.16578125 2.5253125 32.15578125 2.8553125 33.17578125 3.1953125 C29.91881153 4.82379736 26.32016577 4.39550793 22.73828125 4.44140625 C21.0221301 4.47433361 19.3059844 4.50754544 17.58984375 4.54101562 C14.87731539 4.58852179 12.16481082 4.63297082 9.45214844 4.67211914 C6.83896152 4.71172007 4.22622321 4.76328168 1.61328125 4.81640625 C0.79867432 4.8248204 -0.01593262 4.83323456 -0.85522461 4.84190369 C-5.31104672 4.76119003 -5.31104672 4.76119003 -8.82421875 7.1953125 C-9.15733751 10.23107419 -9.15733751 10.23107419 -9.14306641 13.84814453 C-9.15311203 14.53118652 -9.16315765 15.21422852 -9.17350769 15.91796875 C-9.20444245 18.17967879 -9.22140298 20.44126994 -9.23828125 22.703125 C-9.25698467 24.26969432 -9.27655745 25.83625349 -9.29696655 27.40280151 C-9.34838127 31.52913433 -9.38795678 35.65549984 -9.42510986 39.78198242 C-9.46509116 43.9914566 -9.51621021 48.20079368 -9.56640625 52.41015625 C-9.66327603 60.67178149 -9.7476452 68.93347435 -9.82421875 77.1953125 C-11.47421875 77.1953125 -13.12421875 77.1953125 -14.82421875 77.1953125 C-14.89377501 68.15483847 -14.94705849 59.11445677 -14.97965527 50.07377338 C-14.99530128 45.87566478 -15.01651995 41.67773946 -15.05053711 37.47973633 C-15.08316877 33.42728566 -15.10107977 29.37501112 -15.10885048 25.32243919 C-15.11438718 23.77749039 -15.12519909 22.23255107 -15.14140892 20.68767738 C-15.16323441 18.52114773 -15.16618363 16.35534287 -15.16479492 14.1887207 C-15.17145676 12.95628128 -15.17811859 11.72384186 -15.1849823 10.45405579 C-14.78879844 6.87536419 -13.99186169 5.04165277 -11.82421875 2.1953125 C-7.89117403 -0.42671731 -4.55796806 -0.05617277 0 0 Z " fill="#F55B5B" transform="translate(357.82421875,290.8046875)"/>
<path d="M0 0 C0 0.99 0 1.98 0 3 C-2.78418925 4.39209462 -4.93208592 3.99072118 -8.0390625 3.8515625 C-9.87017578 3.79935547 -9.87017578 3.79935547 -11.73828125 3.74609375 C-14.3068553 3.66606782 -16.87481182 3.56231752 -19.44140625 3.43359375 C-27.74183463 3.24505864 -27.74183463 3.24505864 -34.7734375 7.2109375 C-38.99156406 11.4198416 -40.23783841 15.74328478 -40.31884766 21.61645508 C-40.33871735 22.71721878 -40.35858704 23.81798248 -40.37905884 24.95210266 C-40.39061005 26.1293541 -40.40216125 27.30660553 -40.4140625 28.51953125 C-40.43342865 29.73323898 -40.4527948 30.94694672 -40.4727478 32.19743347 C-40.53246571 36.06905111 -40.57889855 39.94069861 -40.625 43.8125 C-40.66318688 46.439466 -40.70223902 49.06641957 -40.7421875 51.69335938 C-40.83816102 58.12879585 -40.92323153 64.56430732 -41 71 C-42.32 70.34 -43.64 69.68 -45 69 C-45.0254094 61.58016696 -45.04289188 54.16034521 -45.05493164 46.74047852 C-45.05995228 44.21768779 -45.0667701 41.69489996 -45.07543945 39.17211914 C-45.08760442 35.54052006 -45.0932511 31.90895953 -45.09765625 28.27734375 C-45.10281754 27.15416245 -45.10797882 26.03098114 -45.11329651 24.87376404 C-45.11447312 8.35235559 -45.11447312 8.35235559 -40 3 C-29.64098679 -3.25413321 -11.37273428 -3.29603603 0 0 Z " fill="#F55959" transform="translate(176,149)"/>
<path d="M0 0 C0.66 0 1.32 0 2 0 C4.56396503 7.43388604 7.57760856 16.26717431 5 24 C5.66 24 6.32 24 7 24 C7.10161289 30.58352441 7.1715547 37.16684577 7.21972656 43.75097656 C7.23981316 45.98966021 7.2670878 48.22829158 7.30175781 50.46679688 C7.35040464 53.68893349 7.37299874 56.91037501 7.390625 60.1328125 C7.41127014 61.12991241 7.43191528 62.12701233 7.45318604 63.15432739 C7.45503062 68.89658428 7.10987967 72.60683156 3 77 C-1.57268722 79.98081748 -7.28380241 79.25076891 -12.55078125 79.1953125 C-13.56472458 79.1924826 -14.57866791 79.18965271 -15.62333679 79.18673706 C-18.85317927 79.17556625 -22.08274171 79.15046711 -25.3125 79.125 C-27.50585536 79.1149662 -29.69921508 79.10584105 -31.89257812 79.09765625 C-37.26181386 79.07563707 -42.63088692 79.04219023 -48 79 C-48 78.34 -48 77.68 -48 77 C-45.1732947 75.40019101 -43.1959759 74.75685116 -39.95336914 74.82055664 C-38.7767849 74.83530785 -38.7767849 74.83530785 -37.57643127 74.85035706 C-36.73781052 74.87009079 -35.89918976 74.88982452 -35.03515625 74.91015625 C-33.24804958 74.93057696 -31.46094009 74.95075167 -29.67382812 74.97070312 C-26.86486692 75.01419767 -24.05609675 75.06262272 -21.24731445 75.11645508 C-18.53076824 75.16480746 -15.8144771 75.19462933 -13.09765625 75.22265625 C-12.26105972 75.24441422 -11.4244632 75.26617218 -10.56251526 75.28858948 C-5.90242355 75.32812849 -2.73141557 75.1319767 1 72 C1.92923977 69.21228069 2.14867338 67.41765752 2.20532227 64.52856445 C2.22526749 63.62785721 2.24521271 62.72714996 2.26576233 61.79914856 C2.28247482 60.83031235 2.29918732 59.86147614 2.31640625 58.86328125 C2.33718735 57.86870407 2.35796844 56.87412689 2.37937927 55.84941101 C2.44479412 52.67051133 2.5037224 49.49152866 2.5625 46.3125 C2.60569288 44.15819452 2.64930742 42.00389746 2.69335938 39.84960938 C2.80046726 34.56649412 2.90224873 29.28329621 3 24 C2.67 24 2.34 24 2 24 C1.93941406 23.08476562 1.87882812 22.16953125 1.81640625 21.2265625 C1.73261719 20.03804687 1.64882812 18.84953125 1.5625 17.625 C1.48128906 16.44164062 1.40007812 15.25828125 1.31640625 14.0390625 C1.18915064 11.08481099 1.18915064 11.08481099 0 9 C-0.06950541 7.45976004 -0.08452357 5.91665012 -0.0625 4.375 C-0.05347656 3.55773437 -0.04445312 2.74046875 -0.03515625 1.8984375 C-0.02355469 1.27195313 -0.01195312 0.64546875 0 0 Z " fill="#F65555" transform="translate(241,130)"/>
<path d="M0 0 C2.17782681 2.17782681 1.26089916 7.25103078 1.31640625 10.28515625 C1.33718735 11.21597519 1.35796844 12.14679413 1.37937927 13.1058197 C1.44497931 16.09130182 1.50380802 19.07687484 1.5625 22.0625 C1.6056753 24.08138976 1.64928925 26.1002702 1.69335938 28.11914062 C1.80067129 33.07933297 1.90190888 38.03961709 2 43 C-3.25773287 39.89510718 -6.0683483 37.92423887 -8 32 C-8.22705078 28.58666992 -8.22705078 28.58666992 -8.1953125 24.73046875 C-8.1924826 24.04946609 -8.18965271 23.36846344 -8.18673706 22.66682434 C-8.17560525 20.50686545 -8.15051457 18.34733206 -8.125 16.1875 C-8.11496111 14.71680289 -8.10583685 13.24609924 -8.09765625 11.77539062 C-8.07568913 8.18345714 -8.0412082 4.59177015 -8 1 C-5.26752652 -0.36623674 -3.01801098 -0.128426 0 0 Z " fill="#F07272" transform="translate(130,324)"/>
<path d="M0 0 C1.0709919 -0.0049926 1.0709919 -0.0049926 2.16362 -0.01008606 C3.67409624 -0.0151454 5.18458365 -0.01749469 6.69506836 -0.01733398 C8.99286618 -0.01951337 11.29017817 -0.03765941 13.58789062 -0.05664062 C15.05859212 -0.05957628 16.52929588 -0.06155992 18 -0.0625 C18.68145584 -0.06968552 19.36291168 -0.07687103 20.0650177 -0.08427429 C24.31360486 -0.06418151 27.74725251 0.62158049 31.69921875 2.16796875 C31.36921875 2.82796875 31.03921875 3.48796875 30.69921875 4.16796875 C29.17868896 3.92784058 29.17868896 3.92784058 27.62744141 3.68286133 C21.44894352 2.87301347 15.29819347 2.90168638 9.07421875 2.85546875 C7.76453125 2.82646484 6.45484375 2.79746094 5.10546875 2.76757812 C3.84476562 2.75919922 2.5840625 2.75082031 1.28515625 2.7421875 C0.14095215 2.72760498 -1.00325195 2.71302246 -2.18212891 2.69799805 C-6.091463 3.2871219 -7.54405251 4.35415738 -10.30078125 7.16796875 C-11.06123206 10.34282175 -11.06123206 10.34282175 -10.96020508 13.95605469 C-10.97068878 14.62963516 -10.98117249 15.30321564 -10.99197388 15.99720764 C-11.0206974 18.2160565 -11.0144366 20.4333425 -11.0078125 22.65234375 C-11.02092939 24.19364373 -11.03623359 25.73492652 -11.05363464 27.27618408 C-11.09349965 31.3270168 -11.10367596 35.37740002 -11.10766602 39.42840576 C-11.11699477 43.56438852 -11.15440658 47.70010685 -11.18945312 51.8359375 C-11.25404408 59.94661942 -11.28727163 68.05704167 -11.30078125 76.16796875 C-11.96078125 76.16796875 -12.62078125 76.16796875 -13.30078125 76.16796875 C-13.37024323 66.83218436 -13.42357303 57.49648871 -13.45621777 48.16050243 C-13.47188436 43.8255775 -13.49314059 39.49082915 -13.52709961 35.15600586 C-13.55965789 30.97388787 -13.57762678 26.7919399 -13.58541298 22.60970497 C-13.59096287 21.01286453 -13.60180031 19.41603356 -13.61797142 17.81926537 C-13.63969933 15.58527781 -13.64275021 13.35199587 -13.64135742 11.11791992 C-13.64801926 9.84550949 -13.65468109 8.57309906 -13.6615448 7.26213074 C-13.30078125 4.16796875 -13.30078125 4.16796875 -11.96699524 2.2960968 C-8.21544224 -0.24393239 -4.34110913 0.00702645 0 0 Z " fill="#F84C4C" transform="translate(359.30078125,149.83203125)"/>
<path d="M0 0 C0.96679688 0.01804687 1.93359375 0.03609375 2.9296875 0.0546875 C4.01636719 0.08949219 4.01636719 0.08949219 5.125 0.125 C-4.99631496 5.44147094 -16.87870074 5.28038556 -28.05639648 5.25439453 C-29.48294304 5.25702301 -29.48294304 5.25702301 -30.93830872 5.25970459 C-34.040923 5.26405969 -37.14347902 5.26120936 -40.24609375 5.2578125 C-42.41797395 5.25848697 -44.58985407 5.25945819 -46.76173401 5.26071167 C-51.29290492 5.2621797 -55.82405601 5.26006149 -60.35522461 5.25537109 C-66.16468841 5.2496504 -71.97410624 5.25297321 -77.78356838 5.25894356 C-82.25904183 5.26255302 -86.73450433 5.26140922 -91.2099781 5.25881577 C-93.35301786 5.2581488 -95.49605862 5.25896688 -97.63909721 5.26129532 C-100.62588018 5.26383072 -103.61258789 5.25996972 -106.59936523 5.25439453 C-107.48407501 5.25641876 -108.36878479 5.25844299 -109.28030396 5.26052856 C-110.50158745 5.25629883 -110.50158745 5.25629883 -111.74754333 5.25198364 C-112.80461062 5.2514181 -112.80461062 5.2514181 -113.8830328 5.25084114 C-115.98328858 5.11815894 -117.85338376 4.69603571 -119.875 4.125 C-119.875 3.465 -119.875 2.805 -119.875 2.125 C-119.32392767 2.12684359 -118.77285534 2.12868717 -118.20508385 2.13058662 C-104.78391031 2.17479375 -91.36274957 2.20774248 -77.94151878 2.22862434 C-71.45105654 2.23906216 -64.96064684 2.25322149 -58.47021484 2.27587891 C-52.20677804 2.29760711 -45.94339178 2.30956864 -39.6799202 2.31475449 C-37.29011871 2.31845026 -34.90031998 2.32566712 -32.51054001 2.33646011 C-29.16370409 2.35097452 -25.81707716 2.35297793 -22.47021484 2.35205078 C-21.48190674 2.35924133 -20.49359863 2.36643188 -19.4753418 2.37384033 C-12.66242434 2.35341348 -6.70781428 -0.16360523 0 0 Z " fill="#FA4444" transform="translate(413.875,432.875)"/>
<path d="M0 0 C0.66 0 1.32 0 2 0 C2.02320502 10.04903708 2.04095665 20.09806775 2.05181217 30.1471262 C2.05702316 34.81366996 2.06408834 39.48019533 2.07543945 44.14672852 C2.08633182 48.65304176 2.09229028 53.15933737 2.09487724 57.66566277 C2.09672006 59.38198054 2.10031859 61.09829739 2.10573006 62.81460762 C2.11302479 65.22481472 2.1139874 67.63494959 2.11352539 70.04516602 C2.11712067 70.74935669 2.12071594 71.45354736 2.12442017 72.17907715 C2.1114494 78.46248709 1.64126824 84.25135737 -1 90 C-1.27070313 90.61230469 -1.54140625 91.22460938 -1.8203125 91.85546875 C-3.24152458 94.4390629 -4.96831624 96.4321287 -6.9375 98.625 C-7.97197266 99.78902344 -7.97197266 99.78902344 -9.02734375 100.9765625 C-11 103 -11 103 -14 105 C-14.99 104.67 -15.98 104.34 -17 104 C-16.278125 103.29875 -15.55625 102.5975 -14.8125 101.875 C-12.84879389 99.92245131 -11.05732301 97.89987121 -9.3125 95.75 C-7 93 -7 93 -5 92 C0.341465 81.7443872 -0.79954383 69.76991475 -0.68359375 58.49609375 C-0.66298947 56.80501335 -0.64199217 55.1139377 -0.62062073 53.42286682 C-0.56575841 48.99905268 -0.51619302 44.57519487 -0.46777344 40.15130615 C-0.41729458 35.62622244 -0.36174706 31.10120117 -0.30664062 26.57617188 C-0.1994983 17.71750142 -0.09795815 8.85877645 0 0 Z " fill="#F94949" transform="translate(459,157)"/>
<path d="M0 0 C0.33 0.66 0.66 1.32 1 2 C0.67 2.66 0.34 3.32 0 4 C0.66 4 1.32 4 2 4 C2.04636089 17.56939018 2.08188836 31.13876148 2.10362434 44.70821476 C2.11405703 51.00919965 2.12820699 57.31013031 2.15087891 63.61108398 C2.17262541 69.6929776 2.1845725 75.77481908 2.18975449 81.85674858 C2.19344697 84.17594663 2.20065746 86.49514187 2.21146011 88.8143177 C2.22599885 92.06515777 2.22797692 95.31578299 2.22705078 98.56665039 C2.23783661 100.00164131 2.23783661 100.00164131 2.24884033 101.46562195 C2.23270368 106.70755175 1.71751722 111.03824519 0 116 C-0.33 116 -0.66 116 -1 116 C-1.02332977 101.02313694 -1.04097956 86.04627528 -1.05181217 71.06939793 C-1.05697496 64.11583919 -1.06401734 57.16229173 -1.07543945 50.20874023 C-1.08644694 43.50442791 -1.09227621 36.80012975 -1.09487724 30.09580803 C-1.09673202 27.53162387 -1.10035364 24.96744038 -1.10573006 22.40326118 C-1.11293659 18.82554842 -1.11399111 15.24788481 -1.11352539 11.67016602 C-1.11712067 10.59842636 -1.12071594 9.52668671 -1.12442017 8.42247009 C-1.1230455 7.45346771 -1.12167084 6.48446533 -1.12025452 5.48609924 C-1.12117631 4.63897149 -1.1220981 3.79184374 -1.12304783 2.91904545 C-1 1 -1 1 0 0 Z " fill="#F94C4C" transform="translate(246,272)"/>
<path d="M0 0 C0.66 0 1.32 0 2 0 C2.2784375 1.1446875 2.2784375 1.1446875 2.5625 2.3125 C4.55110719 6.03033084 7.22201689 6.66941755 11 8 C12.40321221 8.58385463 13.80546983 9.17000613 15.20703125 9.7578125 C21.81805 12.41056083 28.60413016 14.49504478 35.40255737 16.60348511 C37.72364865 17.32371688 40.04274713 18.05009619 42.36157227 18.77758789 C49.31337677 20.95356087 56.27124065 23.09689769 63.265625 25.1328125 C64.85177612 25.59820435 64.85177612 25.59820435 66.4699707 26.07299805 C68.39223233 26.63299216 70.31772632 27.18205406 72.24682617 27.71801758 C76.82005659 29.05124086 79.96538196 30.08627256 83 34 C82.37996094 33.82984375 81.75992188 33.6596875 81.12109375 33.484375 C80.23550781 33.24203125 79.34992188 32.9996875 78.4375 32.75 C77.42816406 32.47285156 76.41882813 32.19570313 75.37890625 31.91015625 C73.09971452 31.29622368 70.81562166 30.7002417 68.52734375 30.12109375 C60.88070969 28.16649959 53.53490808 25.8375639 46.12426758 23.14135742 C42.13500121 21.70540358 38.19793311 20.46531519 34.0625 19.5 C28.74427313 18.25388826 23.56849996 16.68222125 18.375 15 C17.579729 14.75056641 16.78445801 14.50113281 15.96508789 14.24414062 C15.22121826 13.99857422 14.47734863 13.75300781 13.7109375 13.5 C13.04368652 13.2834375 12.37643555 13.066875 11.68896484 12.84375 C10 12 10 12 8 9 C6.2365625 8.3503125 6.2365625 8.3503125 4.4375 7.6875 C3.303125 7.130625 2.16875 6.57375 1 6 C0.0625 2.8125 0.0625 2.8125 0 0 Z " fill="#F65555" transform="translate(77,262)"/>
<path d="M0 0 C0.66 0 1.32 0 2 0 C2.04636574 11.23974927 2.0818908 22.47947575 2.10362434 33.71930122 C2.11405599 38.93855292 2.12820399 44.15773912 2.15087891 49.37695312 C2.17262921 54.41494261 2.18457329 59.45286913 2.18975449 64.49090195 C2.1934463 66.41180283 2.20065548 68.33270032 2.21146011 70.25357437 C2.22600402 72.9466315 2.22797672 75.63942937 2.22705078 78.33251953 C2.23424133 79.12446213 2.24143188 79.91640472 2.24884033 80.73234558 C2.23214284 85.22828299 1.65305818 88.75363887 0 93 C-0.46445398 95.31121147 -0.8644414 97.62246353 -1.2421875 99.94921875 C-2 102 -2 102 -6 105 C-4.68 99.72 -3.36 94.44 -2 89 C-1.34 89 -0.68 89 0 89 C0 59.63 0 30.26 0 0 Z " fill="#FA4848" transform="translate(459,298)"/>
<path d="M0 0 C1.14339844 -0.00257813 2.28679687 -0.00515625 3.46484375 -0.0078125 C5.24181641 0.00378906 5.24181641 0.00378906 7.0546875 0.015625 C8.84326172 0.00402344 8.84326172 0.00402344 10.66796875 -0.0078125 C11.80878906 -0.00523437 12.94960937 -0.00265625 14.125 0 C15.16672363 0.00225586 16.20844727 0.00451172 17.28173828 0.00683594 C19.9296875 0.265625 19.9296875 0.265625 22.9296875 2.265625 C22.12337891 2.22896729 21.31707031 2.19230957 20.48632812 2.15454102 C16.80117627 2.00822504 13.11663636 1.91773834 9.4296875 1.828125 C8.16125 1.76947266 6.8928125 1.71082031 5.5859375 1.65039062 C-2.77033116 1.49222337 -2.77033116 1.49222337 -9.8515625 5.48046875 C-14.06403063 9.68774627 -15.30822641 14.01438383 -15.38916016 19.88208008 C-15.40902985 20.98284378 -15.42889954 22.08360748 -15.44937134 23.21772766 C-15.46092255 24.3949791 -15.47247375 25.57223053 -15.484375 26.78515625 C-15.50374115 27.99886398 -15.5231073 29.21257172 -15.5430603 30.46305847 C-15.60277821 34.33467611 -15.64921105 38.20632361 -15.6953125 42.078125 C-15.73349938 44.705091 -15.77255152 47.33204457 -15.8125 49.95898438 C-15.90847352 56.39442085 -15.99354403 62.82993232 -16.0703125 69.265625 C-16.7303125 69.265625 -17.3903125 69.265625 -18.0703125 69.265625 C-18.1211188 61.56098249 -18.15609084 53.85638338 -18.18017578 46.15161133 C-18.19021895 43.53180324 -18.20385602 40.91200631 -18.22119141 38.29223633 C-18.24551335 34.52161905 -18.25681269 30.7511503 -18.265625 26.98046875 C-18.27594757 25.81353989 -18.28627014 24.64661102 -18.29690552 23.44432068 C-18.2987541 9.97589181 -18.2987541 9.97589181 -13.7578125 4.453125 C-9.32143995 0.84212409 -5.6647712 0.01224059 0 0 Z " fill="#F94949" transform="translate(151.0703125,150.734375)"/>
<path d="M0 0 C0.763125 0.474375 1.52625 0.94875 2.3125 1.4375 C4.96410548 3.10106097 4.96410548 3.10106097 8 4 C8 4.66 8 5.32 8 6 C8.66 6 9.32 6 10 6 C10 7.65 10 9.3 10 11 C10.66 11 11.32 11 12 11 C13.50302481 14.00604962 13.12994577 16.77665972 13.1328125 20.125 C13.13376923 20.8277002 13.13472595 21.53040039 13.13571167 22.25439453 C13.13639238 23.74056081 13.1345457 25.22673006 13.13037109 26.71289062 C13.12502125 28.99095319 13.13031972 31.26881859 13.13671875 33.546875 C13.13605795 34.98958377 13.13477675 36.43229242 13.1328125 37.875 C13.13168457 39.19242187 13.13055664 40.50984375 13.12939453 41.8671875 C13 45 13 45 12 47 C12.66 47.33 13.32 47.66 14 48 C13.67 48.66 13.34 49.32 13 50 C12.01 50 11.02 50 10 50 C8.8292551 45.7858024 8.77324396 41.64492345 8.68359375 37.296875 C8.66281265 36.45908508 8.64203156 35.62129517 8.62062073 34.75811768 C8.5553745 32.08882644 8.49635642 29.41943902 8.4375 26.75 C8.39429106 24.93749016 8.35067601 23.12498995 8.30664062 21.3125 C8.19971871 16.87509791 8.09838134 12.43759932 8 8 C5.36 8 2.72 8 0 8 C0 5.36 0 2.72 0 0 Z " fill="#F75252" transform="translate(122,317)"/>
<path d="M0 0 C0.33 0 0.66 0 1 0 C1.09372173 15.43874293 1.16411493 30.87746439 1.20724869 46.31642532 C1.22781485 53.48611245 1.25582049 60.65562213 1.30175781 67.82519531 C1.34180905 74.07912599 1.36747596 80.33292806 1.37635398 86.58698344 C1.38153813 89.89408107 1.39574183 93.20072829 1.42292023 96.50772858 C1.45214623 100.21272687 1.45594784 103.91697447 1.45410156 107.62207031 C1.47567322 109.24048828 1.47567322 109.24048828 1.49768066 110.89160156 C1.45647408 118.58183754 0.70976817 128.29023183 -5 134 C-5.144375 134.680625 -5.28875 135.36125 -5.4375 136.0625 C-5.623125 136.701875 -5.80875 137.34125 -6 138 C-6.99 138.33 -7.98 138.66 -9 139 C-7.98417446 135.79624253 -6.88782825 132.75228738 -5.5 129.6875 C-1.0243352 118.68482404 -0.86563811 106.75361231 -0.79467773 95.02075195 C-0.78477814 93.98526718 -0.77487854 92.94978241 -0.76467896 91.88291931 C-0.73339614 88.50139558 -0.70843962 85.11985786 -0.68359375 81.73828125 C-0.66299544 79.37745321 -0.64199827 77.01662861 -0.62062073 74.6558075 C-0.56569695 68.47293916 -0.51615796 62.2900392 -0.46777344 56.1071167 C-0.41734021 49.78557556 -0.36176858 43.46407976 -0.30664062 37.14257812 C-0.19942281 24.76175758 -0.09789861 12.38089749 0 0 Z " fill="#F55959" transform="translate(244,269)"/>
<path d="M0 0 C0.83200928 0.21438721 1.66401855 0.42877441 2.52124023 0.6496582 C17.76737218 3.97076057 33.24932822 3.34418079 48.76239014 3.20599365 C52.63125656 3.17488667 56.50018427 3.16151498 60.36914062 3.14648438 C67.91292464 3.11464707 75.45641029 3.06368519 83 3 C75.63011649 7.91325567 64.02677076 6.18992984 55.48828125 6.23828125 C54.8111376 6.24235678 54.13399395 6.2464323 53.4363308 6.25063133 C49.86209818 6.27131827 46.28790214 6.28570213 42.71362305 6.29516602 C39.04192513 6.30628619 35.37082383 6.34079892 31.69933796 6.38033772 C28.85362161 6.40654007 26.00804826 6.41486023 23.16222191 6.41844749 C21.15536717 6.42563061 19.14861053 6.45202799 17.141922 6.47883606 C10.22242925 6.4623579 5.60253966 6.22319575 0 2 C0 1.34 0 0.68 0 0 Z " fill="#F55A5A" transform="translate(109,429)"/>
<path d="M0 0 C1.20090523 0.00045319 1.20090523 0.00045319 2.42607117 0.00091553 C3.28553848 0.02156067 4.1450058 0.04220581 5.03051758 0.06347656 C6.35591301 0.07196625 6.35591301 0.07196625 7.70808411 0.08062744 C10.53095626 0.1030229 13.3525602 0.15322429 16.17504883 0.20410156 C18.08844196 0.2241625 20.00185498 0.24241398 21.9152832 0.25878906 C26.60652725 0.30289799 31.29682301 0.37194671 35.98754883 0.45410156 C36.48254883 1.44410156 36.48254883 1.44410156 36.98754883 2.45410156 C35.18568115 2.48383057 35.18568115 2.48383057 33.34741211 2.51416016 C28.90058028 2.59009776 24.45408078 2.67883288 20.00756836 2.77148438 C18.08120269 2.80982324 16.15476423 2.84466739 14.22827148 2.87597656 C11.46286965 2.92152101 8.69797114 2.97953193 5.93286133 3.04003906 C4.63591843 3.05736588 4.63591843 3.05736588 3.31277466 3.07504272 C-1.33027965 2.98072314 -1.33027965 2.98072314 -5.01245117 5.45410156 C-5.34556993 8.48986325 -5.34556993 8.48986325 -5.33129883 12.10693359 C-5.34636726 13.13149658 -5.34636726 13.13149658 -5.36174011 14.17675781 C-5.39267487 16.43846786 -5.4096354 18.700059 -5.42651367 20.96191406 C-5.44521709 22.52848338 -5.46478988 24.09504255 -5.48519897 25.66159058 C-5.53661369 29.78792339 -5.5761892 33.9142889 -5.61334229 38.04077148 C-5.65332359 42.25024566 -5.70444263 46.45958274 -5.75463867 50.66894531 C-5.85150846 58.93057055 -5.93587762 67.19226341 -6.01245117 75.45410156 C-6.34245117 75.45410156 -6.67245117 75.45410156 -7.01245117 75.45410156 C-7.0819595 66.26597234 -7.13526657 57.07793362 -7.16788769 47.88959885 C-7.18354415 43.62308211 -7.20478193 39.35674525 -7.23876953 35.09033203 C-7.27136389 30.97304771 -7.28930433 26.85593641 -7.2970829 22.73853302 C-7.30262629 21.16763841 -7.31345122 19.59675327 -7.32964134 18.02593231 C-7.35141719 15.82567374 -7.35441812 13.62613024 -7.35302734 11.42578125 C-7.35968918 10.17335632 -7.36635101 8.9209314 -7.37321472 7.6305542 C-6.80875735 2.66061721 -5.20775991 -0.06571306 0 0 Z " fill="#F94949" transform="translate(354.012451171875,292.5458984375)"/>
<path d="M0 0 C6.39605816 -0.12541291 6.39605816 -0.12541291 9.38768005 0.49581909 C12.19048581 1.03676399 14.75617457 1.12704275 17.60961914 1.12939453 C18.71169205 1.13254669 19.81376495 1.13569885 20.94923401 1.13894653 C22.13258835 1.1369223 23.31594269 1.13489807 24.53515625 1.1328125 C25.76479599 1.13376923 26.99443573 1.13472595 28.26133728 1.13571167 C30.86457368 1.13639193 33.46781178 1.13454835 36.07104492 1.13037109 C40.0233144 1.12505273 43.97546858 1.13030474 47.92773438 1.13671875 C50.46354191 1.13605732 52.99934938 1.13477481 55.53515625 1.1328125 C57.28893333 1.13584885 57.28893333 1.13584885 59.07814026 1.13894653 C66.43279743 1.11832357 73.68139223 0.72818095 81 0 C78.66524023 2.33475977 77.99180291 2.30531026 74.8125 2.5625 C72.1696463 2.7892948 69.60031591 3.06714744 66.98168945 3.50708008 C62.23183251 4.18984139 57.5012499 4.1432471 52.7109375 4.1328125 C51.73065582 4.13376923 50.75037415 4.13472595 49.74038696 4.13571167 C47.67116227 4.13638992 45.60193541 4.13456045 43.53271484 4.13037109 C40.4058743 4.12505252 37.27917966 4.13031029 34.15234375 4.13671875 C5.46950884 4.14988678 5.46950884 4.14988678 0 1 C0 0.67 0 0.34 0 0 Z " fill="#FA4545" transform="translate(120,434)"/>
<path d="M0 0 C0.495 0.99 0.495 0.99 1 2 C-4.15647309 13.18621984 -12.59720507 21.61175993 -23 28 C-25.09765625 28.65625 -25.09765625 28.65625 -27 29 C-29.3347961 29.66152556 -31.66836622 30.32741333 -34 31 C-34 30.01 -34 29.02 -34 28 C-33.113125 27.7525 -32.22625 27.505 -31.3125 27.25 C-27.96451937 26.18876834 -27.96451937 26.18876834 -25.5625 24 C-23 22 -23 22 -19.5625 21.0625 C-11.97962227 18.80093998 -9.1182111 13.95513536 -5.390625 7.3828125 C-3.82683348 4.70328209 -2.03066691 2.3430772 0 0 Z " fill="#F84B4B" transform="translate(454,403)"/>
<path d="M0 0 C0 3 0 3 -1.42578125 4.71875 C-2.04839844 5.3065625 -2.67101562 5.894375 -3.3125 6.5 C-3.92738281 7.0878125 -4.54226562 7.675625 -5.17578125 8.28125 C-5.77777344 8.8484375 -6.37976563 9.415625 -7 10 C-7.4846875 10.51304687 -7.969375 11.02609375 -8.46875 11.5546875 C-16.45999398 19.09744329 -25.67448578 19.21511488 -36 19 C-32.49080561 16.66053707 -30.15102378 16.55346984 -26 16 C-20.53608484 14.73460397 -16.47668723 12.74686349 -11.875 9.6875 C-10.98361328 9.11999023 -10.98361328 9.11999023 -10.07421875 8.54101562 C-6.24575771 6.04364203 -3.12715386 3.33366403 0 0 Z " fill="#F55C5C" transform="translate(230,414)"/>
<path d="M0 0 C0.88042969 0.42152344 1.76085937 0.84304688 2.66796875 1.27734375 C3.82941406 1.82519531 4.99085937 2.37304688 6.1875 2.9375 C7.33605469 3.48277344 8.48460938 4.02804687 9.66796875 4.58984375 C12.51466736 5.79460131 14.96027845 6.54776271 18 7 C17.67 8.65 17.34 10.3 17 12 C10.51056343 10.42252826 5.66485286 8.90407608 1 4 C0.34765625 1.83984375 0.34765625 1.83984375 0 0 Z " fill="#F75252" transform="translate(86,414)"/>
<path d="M0 0 C0.66 0 1.32 0 2 0 C1.0919475 8.53569348 -1.51022201 15.70411077 -6 23 C-6.680625 24.2684375 -6.680625 24.2684375 -7.375 25.5625 C-9.55256173 28.82884259 -12.16254812 31.28865709 -15 34 C-15.66 33.67 -16.32 33.34 -17 33 C-16.071875 32.13375 -15.14375 31.2675 -14.1875 30.375 C-11.31700094 27.52476329 -9.68078208 24.69772057 -8 21 C-7.34 20.34 -6.68 19.68 -6 19 C-5.17340282 16.98047286 -5.17340282 16.98047286 -4.4921875 14.6484375 C-4.22792969 13.79765625 -3.96367187 12.946875 -3.69140625 12.0703125 C-3.42199219 11.18085938 -3.15257812 10.29140625 -2.875 9.375 C-2.59785156 8.4778125 -2.32070312 7.580625 -2.03515625 6.65625 C-1.35115974 4.43915786 -0.67303328 2.22043999 0 0 Z " fill="#F94949" transform="translate(244,389)"/>
<path d="M0 0 C0.66 0 1.32 0 2 0 C2.10161289 6.58352441 2.1715547 13.16684577 2.21972656 19.75097656 C2.23981316 21.98966021 2.2670878 24.22829158 2.30175781 26.46679688 C2.35040464 29.68893349 2.37299874 32.91037501 2.390625 36.1328125 C2.41127014 37.12991241 2.43191528 38.12701233 2.45318604 39.15432739 C2.45509637 45.10125408 1.89352826 48.42611473 -2 53 C-2.66 52.67 -3.32 52.34 -4 52 C-3.5155542 51.06212646 -3.0311084 50.12425293 -2.53198242 49.15795898 C-0.47448803 44.33133913 -0.52320885 39.65551082 -0.48828125 34.47265625 C-0.46135445 32.98928017 -0.46135445 32.98928017 -0.43388367 31.47593689 C-0.37999195 28.33816709 -0.34595261 25.20054758 -0.3125 22.0625 C-0.2793083 19.92641148 -0.24481693 17.79034273 -0.20898438 15.65429688 C-0.12427792 10.43633274 -0.05583915 5.21834864 0 0 Z " fill="#F94848" transform="translate(246,154)"/>
<path d="M0 0 C2.81457894 0.44770609 5.62619129 0.90757217 8.4375 1.375 C9.23994141 1.50132812 10.04238281 1.62765625 10.86914062 1.7578125 C12.92520723 2.10482796 14.96490131 2.54590428 17 3 C17.33 3.66 17.66 4.32 18 5 C7.41430867 6.7610915 7.41430867 6.7610915 2.8125 4.0625 C1.884375 3.381875 0.95625 2.70125 0 2 C0 1.34 0 0.68 0 0 Z " fill="#F65555" transform="translate(109,429)"/>
<path d="M0 0 C3.2179411 4.82691165 5.55059748 10.17665469 4.6875 16.0625 C4.460625 17.031875 4.23375 18.00125 4 19 C4.66 19.33 5.32 19.66 6 20 C5.67 21.98 5.34 23.96 5 26 C4.67 26 4.34 26 4 26 C3.32570033 22.60563644 2.6619172 19.20929807 2 15.8125 C1.80921875 14.85279297 1.6184375 13.89308594 1.421875 12.90429688 C1.24140625 11.97294922 1.0609375 11.04160156 0.875 10.08203125 C0.70742188 9.22843018 0.53984375 8.3748291 0.3671875 7.49536133 C-0.00595229 4.95954897 -0.06412996 2.55918603 0 0 Z " fill="#F84C4C" transform="translate(455,129)"/>
<path d="M0 0 C5.45479185 0.56820748 9.91059256 1.94637945 15 4 C15 4.66 15 5.32 15 6 C13.56208484 5.85831863 12.1246763 5.71148957 10.6875 5.5625 C9.88699219 5.48128906 9.08648437 5.40007812 8.26171875 5.31640625 C5.04795505 4.86681236 3.40374924 4.4934713 1.3125 1.9375 C0.879375 1.298125 0.44625 0.65875 0 0 Z " fill="#F84F4F" transform="translate(161,296)"/>
<path d="M0 0 C0.33 0.66 0.66 1.32 1 2 C0.07421875 4.05859375 0.07421875 4.05859375 -1.3125 6.4375 C-1.76238281 7.21996094 -2.21226562 8.00242188 -2.67578125 8.80859375 C-3.7385122 10.5672724 -4.86018251 12.29027377 -6 14 C-6.4560284 8.29964499 -5.60412752 5.45215753 -2 1 C-1.34 0.67 -0.68 0.34 0 0 Z " fill="#F45E5E" transform="translate(138,151)"/>
<path d="M0 0 C0.66 0.33 1.32 0.66 2 1 C-7.22551253 8.85193622 -7.22551253 8.85193622 -13 9 C-10.74713373 5.6207006 -9.03051063 4.66390839 -5.5 2.75 C-4.5203125 2.20859375 -3.540625 1.6671875 -2.53125 1.109375 C-1.27828125 0.56023437 -1.27828125 0.56023437 0 0 Z " fill="#F94848" transform="translate(225,423)"/>
<path d="M0 0 C2.28172293 4.56344587 2.28172293 4.56344587 1.375 8.5625 C1.21773438 9.32691406 1.06046875 10.09132813 0.8984375 10.87890625 C0 13 0 13 -4 16 C-2.68 10.72 -1.36 5.44 0 0 Z " fill="#F84D4D" transform="translate(457,387)"/>
<path d="M0 0 C1.32 0.33 2.64 0.66 4 1 C4 3.31 4 5.62 4 8 C4.66 8.33 5.32 8.66 6 9 C4.68 9 3.36 9 2 9 C0.14223235 5.86501708 -0.20140476 3.62528568 0 0 Z " fill="#F65454" transform="translate(287,425)"/>
<path d="M0 0 C2.31 0.33 4.62 0.66 7 1 C6.67 2.65 6.34 4.3 6 6 C5.01 5.67 4.02 5.34 3 5 C3 4.34 3 3.68 3 3 C2.01 3 1.02 3 0 3 C0 2.01 0 1.02 0 0 Z " fill="#F16E6E" transform="translate(97,420)"/>
<path d="M0 0 C2.9719385 1.12451727 5.33440687 2.22293791 8 4 C8 4.66 8 5.32 8 6 C5.21788056 5.62403791 3.4120716 5.32681541 1.1875 3.5625 C0 2 0 2 0 0 Z " fill="#F45F5F" transform="translate(89,416)"/>
<path d="M0 0 C1.98 0 3.96 0 6 0 C5.67 2.64 5.34 5.28 5 8 C4.34 6.68 3.68 5.36 3 4 C2.34 4 1.68 4 1 4 C0.67 2.68 0.34 1.36 0 0 Z " fill="#F65656" transform="translate(185,197)"/>
<path d="M0 0 C0 0.66 0 1.32 0 2 C-2.97 2.66 -5.94 3.32 -9 4 C-8.67 3.01 -8.34 2.02 -8 1 C-5.17884816 -0.07009208 -3.09455459 0 0 0 Z " fill="#F84C4C" transform="translate(211,431)"/>
<path d="M0 0 C0.33 0.99 0.66 1.98 1 3 C1.66 3 2.32 3 3 3 C3.93423645 6.01031744 4.04449911 6.86650268 3 10 C2.34 10 1.68 10 1 10 C0.67 6.7 0.34 3.4 0 0 Z " fill="#F84D4D" transform="translate(457,286)"/>
<path d="M0 0 C2.31 0.66 4.62 1.32 7 2 C6.67 2.99 6.34 3.98 6 5 C4.35 4.67 2.7 4.34 1 4 C0.67 2.68 0.34 1.36 0 0 Z " fill="#F84C4C" transform="translate(234,258)"/>
<path d="M0 0 C0.66 0 1.32 0 2 0 C3.60355101 3.50776784 4.22036864 6.14354879 4 10 C1.16625119 6.79663178 0.4794463 4.21912747 0 0 Z " fill="#F84E4E" transform="translate(241,130)"/>
<path d="M0 0 C0.66 0 1.32 0 2 0 C2 0.66 2 1.32 2 2 C4.475 2.99 4.475 2.99 7 4 C7 4.66 7 5.32 7 6 C5.68 6 4.36 6 3 6 C2.01 4.02 1.02 2.04 0 0 Z " fill="#F75151" transform="translate(436,103)"/>
<path d="M0 0 C2.125 0.375 2.125 0.375 4 1 C2.33333333 2.66666667 0.66666667 4.33333333 -1 6 C-1.625 4.125 -1.625 4.125 -2 2 C-1.34 1.34 -0.68 0.68 0 0 Z " fill="#F65656" transform="translate(441,259)"/>
</svg>
